:FULLY-SPECIFIED
:FORCE-ALL-JOINTS-BE-3DOF
:DEGREES
2752
root -5.559 13.9753 -28.4071 1242 -65.4881 -161.137
lfemur -59.6406 42.9068 -6.38762
ltibia 67.9911 0 0
lfoot -2.40923 -1.31852 0
ltoes -31.4818 0 0
rfemur -30.7623 -18.8271 21.6342
rtibia 81.6662 0 0
rfoot -35.3218 -24.7867 0
rtoes -14.374 0 0
lowerback 15.6667 5.79914 0.491115
upperback -4.01752 8.07856 1.4492
thorax -13.4247 3.78607 -0.844322
lowerneck -2.49027 9.60068 2.10698
upperneck 7.69873 12.5515 1.93281
head 2.89222 6.33604 0.677191
lclavicle -6.93634e-14 -1.82882e-14 0
lhumerus 3.65819 10.5334 84.1427
lradius 94.6518 0 0
lwrist -18.716 0 0
lhand -39.7287 388.035 0
lfingers 7.12502 0 0
lthumb -12.7062 -662.371 0
rclavicle -6.93634e-14 -1.82882e-14 0
rhumerus -57.8841 50.9998 -110.268
rradius 114.084 0 0
rwrist -84.7016 0 0
rhand 4.82202 -386.895 0
rfingers 7.12502 0 0
rthumb 30.2002 305.554 0
2753
root -5.56922 13.9653 -28.4141 1242.02 -65.5483 -161.149
lfemur -59.78 43.0078 -6.45928
ltibia 68.2 0 0
lfoot -2.44095 -1.3423 0
ltoes -31.5194 0 0
rfemur -30.7459 -18.8779 21.616
rtibia 81.7914 0 0
rfoot -35.3327 -24.7882 0
rtoes -14.344 0 0
lowerback 15.6476 5.8154 0.518626
upperback -4.04713 8.10436 1.42758
thorax -13.4402 3.79446 -0.889647
lowerneck -2.49877 9.58422 2.14014
upperneck 7.73747 12.5273 1.92461
head 2.90994 6.32468 0.670926
lclavicle -9.44724e-14 -2.46493e-14 0
lhumerus 3.65869 10.4463 84.1698
lradius 94.6381 0 0
lwrist -18.5064 0 0
lhand -39.6814 387.875 0
lfingers 7.12502 0 0
lthumb -12.6607 -662.529 0
rclavicle -9.44724e-14 -2.46493e-14 0
rhumerus -57.9022 50.8844 -110.283
rradius 114.08 0 0
rwrist -84.5578 0 0
rhand 4.80391 -386.857 0
rfingers 7.12502 0 0
rthumb 30.1829 305.589 0
2754
root -5.57894 13.9571 -28.4224 1241.95 -65.592 -161.081
lfemur -59.91 43.102 -6.52611
ltibia 68.4111 0 0
lfoot -2.48363 -1.37429 0
ltoes -31.5547 0 0
rfemur -30.7335 -18.9163 21.6023
rtibia 81.9313 0 0
rfoot -35.3455 -24.7902 0
rtoes -14.3134 0 0
lowerback 15.6284 5.81379 0.527852
upperback -4.06573 8.10608 1.4406
thorax -13.4512 3.79499 -0.879979
lowerneck -2.49923 9.58805 2.13763
upperneck 7.77546 12.5307 1.93944
head 2.92176 6.32675 0.677531
lclavicle -6.56859e-14 -8.74653e-15 0
lhumerus 3.62722 10.4446 84.2076
lradius 94.6367 0 0
lwrist -18.5372 0 0
lhand -39.6909 387.948 0
lfingers 7.12502 0 0
lthumb -12.6698 -662.456 0
rclavicle -6.56859e-14 -8.74653e-15 0
rhumerus -57.9311 50.879 -110.277
rradius 114.112 0 0
rwrist -84.502 0 0
rhand 4.81626 -386.923 0
rfingers 7.12502 0 0
rthumb 30.1947 305.525 0
2755
root -5.58663 13.9494 -28.4325 1241.89 -65.6676 -160.998
lfemur -60.0287 43.1881 -6.58716
ltibia 68.6221 0 0
lfoot -2.53628 -1.41376 0
ltoes -31.5873 0 0
rfemur -30.7256 -18.9407 21.5935
rtibia 82.0836 0 0
rfoot -35.3827 -24.7959 0
rtoes -14.2826 0 0
lowerback 15.597 5.79832 0.516889
upperback -4.07654 8.0867 1.47202
thorax -13.4517 3.78869 -0.831747
lowerneck -2.53522 9.60926 2.05311
upperneck 7.81642 12.5581 1.99674
head 2.93229 6.34013 0.712642
lclavicle -4.31735e-14 7.95139e-16 0
lhumerus 3.61514 10.4414 84.232
lradius 94.6227 0 0
lwrist -18.5991 0 0
lhand -39.6714 387.766 0
lfingers 7.12502 0 0
lthumb -12.651 -662.637 0
rclavicle -4.31735e-14 7.95139e-16 0
rhumerus -57.9281 50.8938 -110.232
rradius 114.129 0 0
rwrist -84.4323 0 0
rhand 4.87445 -386.951 0
rfingers 7.12502 0 0
rthumb 30.2502 305.507 0
2756
root -5.59802 13.9368 -28.4377 1241.85 -65.6691 -160.959
lfemur -60.1343 43.2647 -6.64147
ltibia 68.831 0 0
lfoot -2.59789 -1.45995 0
ltoes -31.6169 0 0
rfemur -30.7229 -18.9492 21.5905
rtibia 82.2457 0 0
rfoot -35.4422 -24.8051 0
rtoes -14.252 0 0
lowerback 15.5762 5.80202 0.55795
upperback -4.09551 8.10041 1.4718
thorax -13.4552 3.7917 -0.856878
lowerneck -2.50017 9.59224 2.10375
upperneck 7.7684 12.538 1.94791
head 2.9165 6.32991 0.685279
lclavicle 1.00573e-13 1.35174e-14 0
lhumerus 3.60133 10.4532 84.2214
lradius 94.6119 0 0
lwrist -18.7536 0 0
lhand -39.6696 387.951 0
lfingers 7.12502 0 0
lthumb -12.6493 -662.452 0
rclavicle 1.00573e-13 1.35174e-14 0
rhumerus -57.9193 50.8193 -110.264
rradius 114.09 0 0
rwrist -84.3908 0 0
rhand 4.68751 -386.699 0
rfingers 7.12502 0 0
rthumb 30.0719 305.727 0
2757
root -5.60693 13.9252 -28.4443 1241.9 -65.7222 -161.03
lfemur -60.2249 43.3304 -6.68806
ltibia 69.0355 0 0
lfoot -2.66748 -1.51211 0
ltoes -31.6431 0 0
rfemur -30.7238 -18.9489 21.5861
rtibia 82.4152 0 0
rfoot -35.522 -24.8174 0
rtoes -14.222 0 0
lowerback 15.5737 5.7869 0.515582
upperback -4.10885 8.07194 1.47169
thorax -13.4754 3.78146 -0.826939
lowerneck -2.50216 9.60982 2.07436
upperneck 7.75753 12.5594 2.00235
head 2.90717 6.34156 0.706783
lclavicle 3.81915e-14 1.66979e-14 0
lhumerus 3.60257 10.5057 84.2309
lradius 94.5733 0 0
lwrist -18.9976 0 0
lhand -39.6775 387.868 0
lfingers 7.12502 0 0
lthumb -12.6569 -662.536 0
rclavicle 3.81915e-14 1.66979e-14 0
rhumerus -57.9147 50.8632 -110.207
rradius 114.117 0 0
rwrist -84.4843 0 0
rhand 4.74033 -386.85 0
rfingers 7.12502 0 0
rthumb 30.1223 305.584 0
